# xmcd
#
# Track frame offsets:
#	150
#	8505
#	33260
#	49350
#	91280
#	104957
#	148115
#	163155
#	182515
#	197215
#	233592
#
# Disc length: 3234 seconds
#
# Revision: 1
# Processed by: cddbd v1.5.1PL0 Copyright (c) Steve Scherf et al.
# Submitted via: CDex 1.50Beta5
#
DISCID=920ca00b
DTITLE=石田彰 - お迎えです。
DYEAR=2001
DGENRE=
TTITLE0=オープニング
TTITLE1=極楽湯けむり旅情編エピソード 1
TTITLE2=閑話休題(その1)
TTITLE3=極楽湯けむり旅情編エピソード 2
TTITLE4=閑話休題(その2)
TTITLE5=極楽湯けむり旅情編エピソード 3
TTITLE6=閑話休題(その3)
TTITLE7=極楽湯けむり旅情編エピソード 4
TTITLE8=閑話休題(その4)
TTITLE9=堤円氏の普通な半日〜地球防衛風味〜
TTITLE10=エンディング
EXTD=
EXTT0=
EXTT1=
EXTT2=
EXTT3=
EXTT4=
EXTT5=
EXTT6=
EXTT7=
EXTT8=
EXTT9=
EXTT10=
PLAYORDER=
